<svg width="26" height="26" viewBox="0 0 26 26" fill="none" xmlns="http://www.w3.org/2000/svg">
<g filter="url(#filter0_dd_11253_2096)">
<rect x="3" y="2" width="20" height="20" rx="10" fill="white"/>
<g clip-path="url(#clip0_11253_2096)">
<path d="M13 6C9.68629 6 7 8.68629 7 12C7 15.3137 9.68629 18 13 18C16.3137 18 19 15.3137 19 12C19 8.68629 16.3137 6 13 6ZM13 16.5C10.5147 16.5 8.50001 14.4853 8.50001 12C8.50001 9.51475 10.5147 7.50001 13 7.50001C15.4853 7.50001 17.5 9.51475 17.5 12C17.5 14.4853 15.4853 16.5 13 16.5Z" fill="#0D9488"/>
</g>
</g>
<defs>
<filter id="filter0_dd_11253_2096" x="0" y="0" width="26" height="26" filterUnits="userSpaceOnUse" color-interpolation-filters="sRGB">
<feFlood flood-opacity="0" result="BackgroundImageFix"/>
<feColorMatrix in="SourceAlpha" type="matrix" values="0 0 0 0 0 0 0 0 0 0 0 0 0 0 0 0 0 0 127 0" result="hardAlpha"/>
<feOffset dy="1"/>
<feGaussianBlur stdDeviation="1.5"/>
<feColorMatrix type="matrix" values="0 0 0 0 0 0 0 0 0 0 0 0 0 0 0 0 0 0 0.1 0"/>
<feBlend mode="normal" in2="BackgroundImageFix" result="effect1_dropShadow_11253_2096"/>
<feColorMatrix in="SourceAlpha" type="matrix" values="0 0 0 0 0 0 0 0 0 0 0 0 0 0 0 0 0 0 127 0" result="hardAlpha"/>
<feMorphology radius="1" operator="erode" in="SourceAlpha" result="effect2_dropShadow_11253_2096"/>
<feOffset dy="1"/>
<feGaussianBlur stdDeviation="1"/>
<feColorMatrix type="matrix" values="0 0 0 0 0 0 0 0 0 0 0 0 0 0 0 0 0 0 0.1 0"/>
<feBlend mode="normal" in2="effect1_dropShadow_11253_2096" result="effect2_dropShadow_11253_2096"/>
<feBlend mode="normal" in="SourceGraphic" in2="effect2_dropShadow_11253_2096" result="shape"/>
</filter>
<clipPath id="clip0_11253_2096">
<rect width="12" height="12" fill="white" transform="translate(7 6)"/>
</clipPath>
</defs>
</svg>
