<svg width="26" height="26" viewBox="0 0 26 26" fill="none" xmlns="http://www.w3.org/2000/svg">
<g filter="url(#filter0_dd_11253_1198)">
<rect x="3" y="2" width="20" height="20" rx="10" fill="white"/>
<g clip-path="url(#clip0_11253_1198)">
<path d="M7.10048 16.9219C7.16631 17.0359 7.26098 17.1305 7.37499 17.1964C7.489 17.2622 7.61833 17.2969 7.74998 17.2969H18.25C18.3816 17.2969 18.511 17.2622 18.625 17.1964C18.739 17.1305 18.8337 17.0359 18.8995 16.9219C18.9653 16.8078 19 16.6785 19 16.5469C19 16.4152 18.9653 16.2859 18.8995 16.1719L13.6495 7.07858C13.5837 6.96457 13.489 6.8699 13.375 6.80408C13.261 6.73826 13.1316 6.70361 13 6.70361C12.8683 6.70361 12.739 6.73826 12.625 6.80408C12.511 6.8699 12.4163 6.96457 12.3505 7.07858L7.10048 16.1719C7.03465 16.2859 7 16.4152 7 16.5469C7 16.6785 7.03465 16.8078 7.10048 16.9219ZM13 8.95358L16.9509 15.7969H9.04903L13 8.95358Z" fill="#2563EB"/>
</g>
</g>
<defs>
<filter id="filter0_dd_11253_1198" x="0" y="0" width="26" height="26" filterUnits="userSpaceOnUse" color-interpolation-filters="sRGB">
<feFlood flood-opacity="0" result="BackgroundImageFix"/>
<feColorMatrix in="SourceAlpha" type="matrix" values="0 0 0 0 0 0 0 0 0 0 0 0 0 0 0 0 0 0 127 0" result="hardAlpha"/>
<feOffset dy="1"/>
<feGaussianBlur stdDeviation="1.5"/>
<feColorMatrix type="matrix" values="0 0 0 0 0 0 0 0 0 0 0 0 0 0 0 0 0 0 0.1 0"/>
<feBlend mode="normal" in2="BackgroundImageFix" result="effect1_dropShadow_11253_1198"/>
<feColorMatrix in="SourceAlpha" type="matrix" values="0 0 0 0 0 0 0 0 0 0 0 0 0 0 0 0 0 0 127 0" result="hardAlpha"/>
<feMorphology radius="1" operator="erode" in="SourceAlpha" result="effect2_dropShadow_11253_1198"/>
<feOffset dy="1"/>
<feGaussianBlur stdDeviation="1"/>
<feColorMatrix type="matrix" values="0 0 0 0 0 0 0 0 0 0 0 0 0 0 0 0 0 0 0.1 0"/>
<feBlend mode="normal" in2="effect1_dropShadow_11253_1198" result="effect2_dropShadow_11253_1198"/>
<feBlend mode="normal" in="SourceGraphic" in2="effect2_dropShadow_11253_1198" result="shape"/>
</filter>
<clipPath id="clip0_11253_1198">
<rect width="12" height="12" fill="white" transform="translate(7 6)"/>
</clipPath>
</defs>
</svg>
