<svg width="26" height="26" viewBox="0 0 26 26" fill="none" xmlns="http://www.w3.org/2000/svg">
<g filter="url(#filter0_dd_11253_1258)">
<rect x="3" y="2" width="20" height="20" rx="10" fill="white"/>
<g clip-path="url(#clip0_11253_1258)">
<path d="M13.9981 12L18.793 7.20507C19.069 6.92908 19.069 6.48299 18.793 6.20699C18.517 5.931 18.0709 5.931 17.7949 6.20699L13 11.0019L8.20507 6.20699C7.92908 5.931 7.48299 5.931 7.20699 6.20699C6.931 6.48299 6.931 6.92908 7.20699 7.20507L12.0019 12L7.20699 16.7949C6.931 17.0709 6.931 17.517 7.20699 17.793C7.34464 17.9306 7.52534 17.9998 7.70603 17.9998C7.88673 17.9998 8.06743 17.9306 8.20507 17.793L13 12.9981L17.7949 17.793C17.9325 17.9306 18.1132 17.9998 18.2939 17.9998C18.4746 17.9998 18.6553 17.9306 18.793 17.793C19.069 17.517 19.069 17.0709 18.793 16.7949L13.9981 12Z" fill="#EA580C"/>
</g>
</g>
<defs>
<filter id="filter0_dd_11253_1258" x="0" y="0" width="26" height="26" filterUnits="userSpaceOnUse" color-interpolation-filters="sRGB">
<feFlood flood-opacity="0" result="BackgroundImageFix"/>
<feColorMatrix in="SourceAlpha" type="matrix" values="0 0 0 0 0 0 0 0 0 0 0 0 0 0 0 0 0 0 127 0" result="hardAlpha"/>
<feOffset dy="1"/>
<feGaussianBlur stdDeviation="1.5"/>
<feColorMatrix type="matrix" values="0 0 0 0 0 0 0 0 0 0 0 0 0 0 0 0 0 0 0.1 0"/>
<feBlend mode="normal" in2="BackgroundImageFix" result="effect1_dropShadow_11253_1258"/>
<feColorMatrix in="SourceAlpha" type="matrix" values="0 0 0 0 0 0 0 0 0 0 0 0 0 0 0 0 0 0 127 0" result="hardAlpha"/>
<feMorphology radius="1" operator="erode" in="SourceAlpha" result="effect2_dropShadow_11253_1258"/>
<feOffset dy="1"/>
<feGaussianBlur stdDeviation="1"/>
<feColorMatrix type="matrix" values="0 0 0 0 0 0 0 0 0 0 0 0 0 0 0 0 0 0 0.1 0"/>
<feBlend mode="normal" in2="effect1_dropShadow_11253_1258" result="effect2_dropShadow_11253_1258"/>
<feBlend mode="normal" in="SourceGraphic" in2="effect2_dropShadow_11253_1258" result="shape"/>
</filter>
<clipPath id="clip0_11253_1258">
<rect width="12" height="12" fill="white" transform="translate(7 6)"/>
</clipPath>
</defs>
</svg>
